<?xml version="1.0" standalone="no"?><!DOCTYPE svg PUBLIC "-//W3C//DTD SVG 1.1//EN" "http://www.w3.org/Graphics/SVG/1.1/DTD/svg11.dtd"><svg t="1678255014210" class="icon" viewBox="0 0 1024 1024" version="1.1" xmlns="http://www.w3.org/2000/svg" p-id="18262" xmlns:xlink="http://www.w3.org/1999/xlink" width="32" height="32"><path d="M512 85.333333C252.8 85.333333 42.666667 265.130667 42.666667 486.912c0 121.088 62.634667 229.674667 161.664 303.274667l-0.384 108.501333c0 30.421333 13.482667 45.824 36.48 37.973333l141.824-63.701333c41.216 10.154667 84.736 15.573333 129.749333 15.573333 259.2 0 469.333333-179.797333 469.333333-401.621333C981.333333 265.130667 771.2 85.333333 512 85.333333zM278.826667 555.946667c-37.034667 0-67.072-30.890667-67.072-69.034667 0-38.101333 30.037333-68.992 67.072-68.992 37.034667 0 67.072 30.890667 67.072 68.992 0 38.144-30.037333 69.034667-67.072 69.034667z m233.173333 0c-37.034667 0-67.072-30.890667-67.072-69.034667 0-38.101333 30.037333-68.992 67.072-68.992 37.034667 0 67.072 30.890667 67.072 68.992 0 38.144-30.037333 69.034667-67.072 69.034667z m233.173333 0c-37.034667 0-67.072-30.890667-67.072-69.034667 0-38.101333 30.037333-68.992 67.072-68.992 37.034667 0 67.114667 30.890667 67.114667 68.992 0 38.144-30.08 69.034667-67.114667 69.034667z" fill="#0a6cce" p-id="18263"></path></svg>