<?xml version="1.0" standalone="no"?><!DOCTYPE svg PUBLIC "-//W3C//DTD SVG 1.1//EN" "http://www.w3.org/Graphics/SVG/1.1/DTD/svg11.dtd"><svg t="1678359555689" class="icon" viewBox="0 0 1024 1024" version="1.1" xmlns="http://www.w3.org/2000/svg" p-id="4439" xmlns:xlink="http://www.w3.org/1999/xlink" width="32" height="32"><path d="M299.74528 936.91904l-167.211008 81.824768c-27.931648 13.668352-47.811584-0.212992-43.78112-31.3088l24.534016-189.258752C42.42432 714.029056 0 606.990336 0 490.459136 0 219.58656 229.230592 0 512 0s512 219.58656 512 490.459136c0 270.8736-229.230592 490.459136-512 490.459136-75.71456 0-147.590144-15.742976-212.25472-43.998208zM173.038592 779.761664l-21.567488 166.381568 147.757056-72.30464c63.449088 32.032768 135.840768 50.192384 212.77184 50.192384 251.884544 0 455.110656-194.676736 455.110656-433.570816S763.884544 56.889344 512 56.889344c-251.884544 0-455.110656 194.675712-455.110656 433.569792 0 111.015936 43.886592 212.483072 116.149248 289.301504z" fill="#000000" p-id="4440"></path><path d="M284.217344 516.08576c-31.419392 0-56.889344-25.469952-56.889344-56.88832 0-31.419392 25.469952-56.889344 56.889344-56.889344 31.418368 0 56.88832 25.469952 56.88832 56.889344 0 31.418368-25.469952 56.88832-56.88832 56.88832z m257.292288-3.972096c-31.418368 0-56.88832-25.469952-56.88832-56.88832 0-31.419392 25.469952-56.889344 56.88832-56.889344 31.419392 0 56.889344 25.469952 56.889344 56.889344 0 31.418368-25.469952 56.88832-56.889344 56.88832z m239.192064 3.97312c-31.418368 0-56.889344-25.470976-56.889344-56.889344 0-31.419392 25.470976-56.889344 56.889344-56.889344 31.419392 0 56.889344 25.469952 56.889344 56.889344 0 31.418368-25.469952 56.88832-56.889344 56.88832z" fill="#000000" p-id="4441"></path></svg>