<?xml version="1.0" standalone="no"?><!DOCTYPE svg PUBLIC "-//W3C//DTD SVG 1.1//EN" "http://www.w3.org/Graphics/SVG/1.1/DTD/svg11.dtd"><svg t="1678361270564" class="icon" viewBox="0 0 1024 1024" version="1.1" xmlns="http://www.w3.org/2000/svg" p-id="22861" xmlns:xlink="http://www.w3.org/1999/xlink" width="32" height="32"><path d="M813.5 79.6h-600c-51.8 0-94 40.2-94 89.5v707.4c0 22.2 10.5 42.7 28.8 56.3 19.3 14.2 44.6 18.5 67.8 11.3l2.1-0.7 247.2-113.2c31.1-9.1 65-9.1 96 0l247.2 113.2 2.1 0.7c7.4 2.3 15.1 3.4 22.7 3.4 16.1 0 32-5.1 45.2-14.7 18.3-13.5 28.8-34 28.8-56.3V169.2c0.1-49.4-42-89.6-93.9-89.6z m26 797c0 0.6-1 1.4-1.2 1.6-0.7 0.5-2.8 1.9-6 1.4l-246.6-113-2.1-0.7c-45.2-13.9-95-13.9-140.2 0l-2.1 0.7-246.6 113c-3.2 0.5-5.4-0.9-6-1.4-0.2-0.2-1.2-0.9-1.2-1.6V169.2c0-11.9 11.7-21.5 26-21.5h600c14.3 0 26 9.7 26 21.5v707.4z" fill="#000000" p-id="22862"></path><path d="M669 347l-70.5-10.2-31.5-63.9c-10.1-20.5-30.6-33.2-53.5-33.2s-43.3 12.7-53.5 33.2l-31.5 63.8-70.4 10.3c-22.6 3.3-41.1 18.8-48.1 40.6-7.1 21.7-1.3 45.2 15.1 61.1l51 49.7-12 70.2c-3.9 22.5 5.2 44.9 23.7 58.3 10.5 7.6 22.7 11.5 35 11.5 9.5 0 19-2.3 27.8-6.9l63-33.1 63 33.1c20.2 10.6 44.3 8.9 62.8-4.5s27.6-35.8 23.7-58.3l-12-70.2 51-49.7c16.4-16 22.2-39.4 15.1-61.1-7.2-21.9-25.6-37.5-48.2-40.7z m-68.6 105.7a59.238 59.238 0 0 0-17.1 52.8l9.9 57.8-51.9-27.3c-8.7-4.6-18.2-6.9-27.7-6.9s-19.1 2.3-27.7 6.8L434 563.2l9.9-57.8c3.3-19.3-3.1-39.1-17.1-52.8l-42-40.9 58-8.4c19.4-2.8 36.2-15 44.9-32.6l25.9-52.6 25.9 52.6c8.7 17.6 25.5 29.8 44.9 32.6l58 8.4-42 41z" fill="#000000" p-id="22863"></path></svg>