<?xml version="1.0" standalone="no"?><!DOCTYPE svg PUBLIC "-//W3C//DTD SVG 1.1//EN" "http://www.w3.org/Graphics/SVG/1.1/DTD/svg11.dtd"><svg t="1678359603709" class="icon" viewBox="0 0 1024 1024" version="1.1" xmlns="http://www.w3.org/2000/svg" p-id="6055" xmlns:xlink="http://www.w3.org/1999/xlink" width="32" height="32"><path d="M746.496 903.85066667c-12.8 0-26.112-4.608-39.936-12.8l-153.6-93.696c-10.24-6.144-25.088-9.728-40.96-9.728-15.36 0-30.72 3.584-40.96 9.728l-153.088 93.696c-14.336 8.704-27.648 12.8-39.936 12.8-14.848 0-28.16-6.144-36.864-17.408-7.68-9.728-15.36-27.648-8.192-57.856l41.472-174.592c5.632-24.576-6.144-61.44-25.088-77.824L112.64 459.43466667c-32.256-27.648-28.16-53.76-25.088-64 3.072-9.728 15.36-33.28 57.856-36.864l179.2-14.336c25.088-2.048 56.32-25.088 66.048-48.128l69.12-165.888c16.384-39.424 42.496-43.52 52.736-43.52s36.352 4.096 52.736 43.52L634.368 296.10666667c9.728 23.04 40.96 46.08 66.048 48.128l179.2 14.336c42.496 3.584 54.272 27.136 57.856 36.864 3.072 9.728 7.168 35.84-25.088 64l-136.192 116.736c-18.944 16.384-31.232 53.248-25.088 77.824l41.472 174.592c7.168 30.208-0.512 48.128-8.192 57.856-9.728 11.264-23.04 17.408-37.888 17.408zM446.464 323.24266667C428.544 366.76266667 379.392 402.60266667 332.8 406.18666667l-169.472 13.824 129.536 110.592c35.84 30.72 54.272 88.064 43.52 133.632L296.96 829.61066667l145.408-88.576c18.944-11.776 44.032-18.432 70.144-18.432s51.2 6.656 70.144 18.432l145.408 88.576-39.424-165.376c-10.752-45.568 7.68-103.424 43.52-133.632l129.536-110.592-170.496-13.824c-47.104-3.584-95.744-39.424-113.664-82.944L512 166.05866667 446.464 323.24266667z" fill="#0066cc" p-id="6056"></path><path d="M646.144 658.09066667c-126.464 0-236.032-7.68-240.64-7.68-7.168-0.512-13.312-3.584-17.92-9.216-4.608-5.12-7.168-12.288-6.656-19.456 0.512-9.216 6.144-17.408 13.824-21.504 3.072-1.536 71.168-37.888 155.648-96.768l22.016-15.36-27.136-2.56c-33.28-3.584-72.192-5.12-115.2-5.12-55.296 0-96.768 2.56-97.28 2.56-14.336 1.024-27.136-10.24-28.16-24.576-1.024-14.848 10.24-27.136 24.576-28.16 1.536 0 44.032-3.072 99.84-3.072 61.952 0 148.992 3.584 213.504 19.456 6.656 1.536 12.8 6.144 16.384 12.288 3.584 6.144 4.608 13.312 3.072 19.968-1.536 5.632-4.608 10.752-9.216 14.336-40.448 31.232-83.456 61.952-128.512 91.136l-26.624 17.408 31.744 1.024c40.96 1.536 80.384 2.048 117.76 2.048 45.056 0 87.04-1.024 123.904-3.072 14.848-1.024 27.136 10.24 27.648 25.088 0.512 14.848-10.24 27.136-25.088 27.648-37.888 2.56-80.896 3.584-127.488 3.584z" fill="#0066cc" p-id="6057"></path></svg>