<?xml version="1.0" standalone="no"?><!DOCTYPE svg PUBLIC "-//W3C//DTD SVG 1.1//EN" "http://www.w3.org/Graphics/SVG/1.1/DTD/svg11.dtd"><svg t="1678255597749" class="icon" viewBox="0 0 1024 1024" version="1.1" xmlns="http://www.w3.org/2000/svg" p-id="35981" id="mx_n_1678255597750" xmlns:xlink="http://www.w3.org/1999/xlink" width="32" height="32"><path d="M486.4 212.992c-3.072 1.024-12.288 10.24-12.288 13.312 0 1.024-14.336 29.696-30.72 65.536-17.408 34.816-31.744 65.536-32.768 68.608-1.024 2.048-2.048 5.12-3.072 6.144-1.024 1.024-5.12 8.192-9.216 17.408-4.096 9.216-9.216 17.408-12.288 19.456-6.144 5.12-2.048 5.12-134.144 19.456-59.392 7.168-65.536 8.192-69.632 11.264-3.072 2.048-3.072 10.24-2.048 15.36 1.024 1.024 26.624 25.6 57.344 54.272 97.28 90.112 91.136 82.944 91.136 90.112 0 3.072-2.048 15.36-4.096 26.624s-8.192 39.936-12.288 63.488c-4.096 23.552-9.216 50.176-11.264 60.416-10.24 50.176-10.24 52.224-5.12 57.344s10.24 4.096 25.6-3.072c13.312-7.168 15.36-8.192 41.984-23.552 10.24-6.144 22.528-13.312 28.672-16.384 6.144-3.072 16.384-9.216 23.552-14.336 7.168-4.096 13.312-8.192 14.336-8.192 0 0 5.12-3.072 9.216-6.144 5.12-3.072 9.216-6.144 10.24-6.144 1.024 0 6.144-3.072 11.264-6.144 13.312-8.192 25.6-12.288 31.744-11.264 3.072 1.024 9.216 3.072 15.36 6.144 14.336 7.168 104.448 59.392 132.096 75.776 23.552 14.336 30.72 17.408 38.912 15.36 5.12-1.024 7.168-9.216 5.12-24.576-1.024-7.168-2.048-15.36-3.072-17.408-1.024-4.096-6.144-29.696-17.408-93.184-5.12-29.696-5.12-30.72 6.144-34.816 16.384-6.144 24.576-11.264 21.504-14.336-1.024-1.024-10.24 0-28.672 3.072-34.816 6.144-43.008 7.168-79.872 11.264-41.984 4.096-81.92 5.12-134.144 3.072-40.96-1.024-89.088-5.12-92.16-7.168-2.048-1.024-1.024-6.144 2.048-9.216 2.048-2.048 23.552-17.408 48.128-34.816 77.824-55.296 128-91.136 132.096-95.232 7.168-7.168 6.144-7.168-23.552-11.264-47.104-6.144-59.392-7.168-136.192-10.24-25.6-1.024-49.152-3.072-51.2-3.072-27.648-5.12 114.688-17.408 175.104-15.36 39.936 1.024 86.016 4.096 113.664 8.192 27.648 2.048 28.672 2.048 28.672 5.12 0 2.048-3.072 4.096-62.464 46.08-24.576 17.408-51.2 34.816-58.368 39.936-7.168 5.12-15.36 10.24-16.384 11.264-8.192 5.12-34.816 24.576-41.984 29.696-5.12 3.072-8.192 7.168-8.192 8.192 0 3.072 7.168 4.096 28.672 7.168 57.344 7.168 163.84 10.24 168.96 6.144 1.024-1.024 1.024-4.096-1.024-10.24-1.024-5.12-2.048-9.216-2.048-10.24 0-2.048 24.576-26.624 58.368-57.344 89.088-82.944 91.136-84.992 91.136-92.16 0-6.144-5.12-11.264-11.264-12.288-3.072-1.024-23.552-3.072-45.056-5.12-21.504-2.048-45.056-4.096-53.248-5.12-7.168-1.024-23.552-2.048-34.816-4.096-45.056-4.096-59.392-6.144-62.464-8.192-6.144-3.072-12.288-14.336-55.296-111.616-30.72-69.632-33.792-75.776-37.888-78.848-6.144-4.096-12.288-5.12-15.36-4.096z" fill="#0a6cce" p-id="35982"></path></svg>