<?xml version="1.0" standalone="no"?><!DOCTYPE svg PUBLIC "-//W3C//DTD SVG 1.1//EN" "http://www.w3.org/Graphics/SVG/1.1/DTD/svg11.dtd"><svg t="1678363999820" class="icon" viewBox="0 0 1024 1024" version="1.1" xmlns="http://www.w3.org/2000/svg" p-id="48716" xmlns:xlink="http://www.w3.org/1999/xlink" width="32" height="32"><path d="M53.039687 176.551724 375.098244 176.551724C374.484286 176.551724 473.585858 291.710552 473.585858 291.710552 486.581177 307.112413 509.433838 317.793103 529.530968 317.793103L971.158687 317.793103C961.315964 317.793103 953.37931 309.775113 953.37931 300.309822L953.37931 882.58673C953.37931 872.955622 961.207896 865.103448 970.914322 865.103448L53.085678 865.103448C62.785907 865.103448 70.62069 872.915968 70.62069 882.765489L70.62069 158.889684C70.62069 168.590089 62.665481 176.551724 53.039687 176.551724ZM0 882.765489C0 911.963754 23.828092 935.724138 53.085678 935.724138L970.914322 935.724138C1000.258278 935.724138 1024 911.910877 1024 882.58673L1024 300.309822C1024 270.932674 1000.480803 247.172414 971.158687 247.172414L529.530968 247.172414C530.299604 247.172414 431.241728 132.013586 431.241728 132.013586 418.224358 116.585578 395.290394 105.931034 375.098244 105.931034L53.039687 105.931034C23.649986 105.931034 0 129.600124 0 158.889684L0 882.765489Z" fill="#818181" p-id="48717"></path></svg>