<?xml version="1.0" standalone="no"?><!DOCTYPE svg PUBLIC "-//W3C//DTD SVG 1.1//EN" "http://www.w3.org/Graphics/SVG/1.1/DTD/svg11.dtd"><svg t="1678363192932" class="icon" viewBox="0 0 1024 1024" version="1.1" xmlns="http://www.w3.org/2000/svg" p-id="37783" xmlns:xlink="http://www.w3.org/1999/xlink" width="32" height="32"><path d="M872.802928 755.99406 872.864326 755.99406 872.864326 755.624646Z" fill="#272536" p-id="37784"></path><path d="M807.273469 216.727043c-162.808016-162.836669-427.736874-162.836669-590.544891 0-162.836669 162.806993-162.836669 427.736874 0 590.543867 162.808016 162.837692 427.737898 162.837692 590.544891 0C970.110137 644.462894 970.110137 379.534036 807.273469 216.727043M764.893242 764.92036c-139.444912 139.443889-366.370225 139.414213-505.798764 0-139.459239-139.473565-139.459239-366.354875 0-505.827417 139.428539-139.429563 366.354875-139.460262 505.798764 0C904.336108 398.521482 904.336108 625.476471 764.893242 764.92036" fill="#231F20" p-id="37785"></path><path d="M381.724423 468.02137c24.783453 0 44.953841-20.169365 44.953841-44.967144 0-24.828478-20.170388-45.027519-44.953841-45.027519-24.842805 0-45.013193 20.199041-45.013193 45.027519C336.71123 447.852004 356.881618 468.02137 381.724423 468.02137" fill="#231F20" p-id="37786"></path><path d="M640.680243 468.095048c24.812105 0 45.010123-20.213367 45.010123-45.01217 0-24.827455-20.198018-44.99682-45.010123-44.99682-24.785499 0-44.953841 20.169365-44.953841 44.99682C595.726401 447.88168 615.894743 468.095048 640.680243 468.095048" fill="#231F20" p-id="37787"></path><path d="M642.245901 619.058294l-2.453888 0.798179c-40.310078 18.248619-83.548858 27.5341-128.411625 27.5341-46.343491 0-90.173742-9.375531-130.305765-27.799136l-2.425236-0.741897c-1.508353-0.413416-3.548826-1.003863-6.092765-1.003863-14.757099 0-26.734898 11.977799-26.734898 26.675546 0 6.978948 3.282766 13.988596 8.695033 19.253506l-0.325411 1.62501 6.831592 3.076058c47.911196 21.679765 100.021018 33.095769 150.681838 33.095769 51.608402 0 102.180194-11.120268 150.978597-33.361829 8.575306-4.703115 13.928221-13.721513 13.928221-23.511483C676.611593 627.458615 661.027663 613.290941 642.245901 619.058294" fill="#231F20" p-id="37788"></path></svg>