<?xml version="1.0" standalone="no"?><!DOCTYPE svg PUBLIC "-//W3C//DTD SVG 1.1//EN" "http://www.w3.org/Graphics/SVG/1.1/DTD/svg11.dtd"><svg t="1678363087738" class="icon" viewBox="0 0 1024 1024" version="1.1" xmlns="http://www.w3.org/2000/svg" p-id="33645" xmlns:xlink="http://www.w3.org/1999/xlink" width="32" height="32"><path d="M960 192h-28.384c-16.8 0-32.928 6.624-44.928 18.432L800 295.936V256a96 96 0 0 0-96-96H96C43.072 160 0 203.04 0 256v512a96 96 0 0 0 96 96h608c52.992 0 96-43.008 96-96v-39.072l86.688 85.504c12 11.808 28.128 18.432 44.928 18.432H960a64 64 0 0 0 64-64V256a64 64 0 0 0-64-64zM96 800c-17.664 0-32-14.368-32-32V256a32 32 0 0 1 32-32h608c17.632 0 32 14.336 32 32v512c0 17.632-14.368 32-32 32H96z m864-31.136h-32l-128-128V640l-32-32v-192l160-160h32v512.864z" fill="#000000" p-id="33646"></path></svg>