<?xml version="1.0" standalone="no"?><!DOCTYPE svg PUBLIC "-//W3C//DTD SVG 1.1//EN" "http://www.w3.org/Graphics/SVG/1.1/DTD/svg11.dtd"><svg t="1678283385123" class="icon" viewBox="0 0 1024 1024" version="1.1" xmlns="http://www.w3.org/2000/svg" p-id="24383" xmlns:xlink="http://www.w3.org/1999/xlink" width="32" height="32"><path d="M889.6 127.488H141.696c-38.656 0-70.08 31.488-70.08 70.144v467.392c0 38.656 31.488 70.144 70.08 70.144h342.976v99.456H368.384c-18.688 0-33.792 13.888-33.792 30.976s15.104 30.976 33.792 30.976h294.592c18.688 0 33.792-13.888 33.792-30.976s-15.104-30.976-33.792-30.976H546.688v-99.456H889.6c38.656 0 70.144-31.424 70.144-70.144V197.568c0-38.592-31.424-70.08-70.144-70.08z m4.864 526.592a22.272 22.272 0 0 1-22.272 22.336H159.168a22.272 22.272 0 0 1-22.272-22.336V208.512c0-12.352 10.048-22.272 22.272-22.272h713.024c12.288 0 22.272 9.92 22.272 22.272V654.08zM566.976 313.984c-13.184-10.624-23.936-2.88-23.936 15.872v49.984h-2.176c-77.056 0-208.128 89.024-209.216 168.192 0 6.336 5.12 8.128 10.048 0 24.896-44.416 129.536-67.456 182.848-67.456h18.496v52.736c0 15.744 11.648 26.496 24.896 15.872l121.856-97.792c13.184-10.56 13.184-27.904 0-38.528l-122.816-98.88z" fill="#989898" p-id="24384"></path></svg>