<?xml version="1.0" standalone="no"?><!DOCTYPE svg PUBLIC "-//W3C//DTD SVG 1.1//EN" "http://www.w3.org/Graphics/SVG/1.1/DTD/svg11.dtd"><svg t="1678256284654" class="icon" viewBox="0 0 1024 1024" version="1.1" xmlns="http://www.w3.org/2000/svg" p-id="7174" xmlns:xlink="http://www.w3.org/1999/xlink" width="32" height="32"><path d="M109.714286 292.571429h804.571428c21.942857 0 36.571429-21.942857 36.571429-43.885715 0-14.628571-14.628571-29.257143-36.571429-29.257143h-804.571428c-21.942857 0-36.571429 14.628571-36.571429 36.571429 0 14.628571 14.628571 36.571429 36.571429 36.571429zM914.285714 512h-804.571428c-21.942857 0-36.571429 14.628571-36.571429 36.571429 0 14.628571 14.628571 36.571429 36.571429 36.571428h804.571428c21.942857 0 36.571429-21.942857 36.571429-43.885714 0-14.628571-14.628571-29.257143-36.571429-29.257143zM914.285714 804.571429h-804.571428c-21.942857 0-36.571429 14.628571-36.571429 36.571428s14.628571 36.571429 36.571429 36.571429h804.571428c21.942857 0 36.571429-21.942857 36.571429-36.571429 0-21.942857-14.628571-36.571429-36.571429-36.571428z" fill="#989898" p-id="7175"></path></svg>