<?xml version="1.0" standalone="no"?><!DOCTYPE svg PUBLIC "-//W3C//DTD SVG 1.1//EN" "http://www.w3.org/Graphics/SVG/1.1/DTD/svg11.dtd"><svg t="1678255406389" class="icon" viewBox="0 0 1024 1024" version="1.1" xmlns="http://www.w3.org/2000/svg" p-id="34026" xmlns:xlink="http://www.w3.org/1999/xlink" width="32" height="32"><path d="M649.6 633.6c86.4-48 147.2-144 147.2-249.6 0-160-128-288-288-288s-288 128-288 288c0 108.8 57.6 201.6 147.2 249.6-121.6 48-214.4 153.6-240 288-3.2 9.6 0 19.2 6.4 25.6 3.2 9.6 12.8 12.8 22.4 12.8h704c9.6 0 19.2-3.2 25.6-12.8 6.4-6.4 9.6-16 6.4-25.6-25.6-134.4-121.6-240-243.2-288z" fill="#0a6cce" p-id="34027"></path></svg>