<?xml version="1.0" standalone="no"?><!DOCTYPE svg PUBLIC "-//W3C//DTD SVG 1.1//EN" "http://www.w3.org/Graphics/SVG/1.1/DTD/svg11.dtd"><svg t="1678287473656" class="icon" viewBox="0 0 1024 1024" version="1.1" xmlns="http://www.w3.org/2000/svg" p-id="33334" xmlns:xlink="http://www.w3.org/1999/xlink" width="32" height="32"><path d="M889.472 148.266667a42.666667 42.666667 0 0 1-13.568 58.794666l-282.88 176.725334 171.306667 107.008 2.261333 0.085333a202.666667 202.666667 0 1 1-115.413333 29.781333l-138.624-86.570666-139.178667 86.912a202.666667 202.666667 0 1 1-112.554667-30.293334l171.221334-106.922666-282.794667-176.725334a42.666667 42.666667 0 0 1-15.957333-54.4l2.389333-4.394666a42.666667 42.666667 0 0 1 58.794667-13.568l318.08 198.784 318.122666-198.784a42.666667 42.666667 0 0 1 58.794667 13.568zM266.666667 576a117.333333 117.333333 0 1 0 0 234.666667 117.333333 117.333333 0 0 0 0-234.666667z m490.666666 0a117.333333 117.333333 0 1 0 0 234.666667 117.333333 117.333333 0 0 0 0-234.666667z" fill="#989898" p-id="33335"></path></svg>