<?xml version="1.0" standalone="no"?><!DOCTYPE svg PUBLIC "-//W3C//DTD SVG 1.1//EN" "http://www.w3.org/Graphics/SVG/1.1/DTD/svg11.dtd"><svg t="1678256256697" class="icon" viewBox="0 0 1024 1024" version="1.1" xmlns="http://www.w3.org/2000/svg" p-id="5741" xmlns:xlink="http://www.w3.org/1999/xlink" width="32" height="32"><path d="M803.517 943.735h-8.758l-284.667-142.75-280.743 142.75h-8.866c-35.688 0-64.723-29.805-64.723-66.44v-707.12c0-36.635 29.034-66.44 64.723-66.44h583.034c35.688 0 64.724 29.805 64.724 66.44v707.12c-0.001 36.635-29.036 66.44-64.724 66.44z m-293.656-225.65L794.24 860.692V177.735H229.76v682.774l280.101-142.424z" fill="#0a6cce" p-id="5742"></path><path d="M621.166 671.05c-5.889 0-11.8-1.404-17.214-4.25L512 618.458 420.048 666.8a37.002 37.002 0 0 1-53.686-39.004l17.561-102.391-74.39-72.514a37 37 0 0 1 20.507-63.111l102.804-14.939 45.978-93.158a37 37 0 0 1 33.179-20.625c0.001 0-0.001 0 0 0a37.003 37.003 0 0 1 33.18 20.625l45.975 93.158 102.806 14.938a37.001 37.001 0 0 1 20.507 63.111l-74.39 72.514 17.561 102.391a37 37 0 0 1-36.474 43.255zM512 539.657a36.99 36.99 0 0 1 17.218 4.25l42.813 22.508-8.177-47.672a36.999 36.999 0 0 1 10.641-32.749l34.635-33.761-47.865-6.955a36.997 36.997 0 0 1-27.859-20.241l-21.405-43.373-21.406 43.373a37 37 0 0 1-27.858 20.24l-47.864 6.955 34.636 33.762a37.001 37.001 0 0 1 10.641 32.749l-8.177 47.672 42.813-22.508a36.95 36.95 0 0 1 17.214-4.25z" fill="#0a6cce" p-id="5743"></path></svg>